<svg width="16" height="16" viewBox="0 0 16 16" xmlns="http://www.w3.org/2000/svg" fill="white"><path d="M14 6.76601L15 5.76601V12C15 13.654 13.654 15 12 15H4C2.346 15 1 13.654 1 12V4.00001C1 2.34601 2.346 1.00001 4 1.00001H10.233L9.233 2.00001H4C2.897 2.00001 2 2.89701 2 4.00001V12C2 13.103 2.897 14 4 14H12C13.103 14 14 13.103 14 12V6.76601ZM15.453 0.547012H15.452C14.722 -0.182988 13.538 -0.182988 12.807 0.547012L7.978 5.37601C7.696 5.65801 7.497 6.01001 7.4 6.39701L7.026 7.89501C6.863 8.54601 7.453 9.13601 8.105 8.97401L9.603 8.59901C9.989 8.50201 10.342 8.30301 10.624 8.02101L15.453 3.19201C16.183 2.46201 16.183 1.27801 15.453 0.547012Z"/></svg>