<svg width="16" height="16" viewBox="0 0 16 16" xmlns="http://www.w3.org/2000/svg" fill="white"><path d="M12.854 14.8542L14.854 12.8542C15.049 12.6592 15.049 12.3422 14.854 12.1472L12.854 10.1472C12.659 9.95223 12.342 9.95223 12.147 10.1472C11.952 10.3422 11.952 10.6592 12.147 10.8542L13.293 12.0002H8.5C8.225 12.0002 8 11.7752 8 11.5002V5.50023C8 5.22523 8.225 5.00023 8.5 5.00023H13.293L12.147 6.14623C12.049 6.24423 12.001 6.37223 12.001 6.50023C12.001 6.62823 12.05 6.75623 12.147 6.85423C12.342 7.04923 12.659 7.04923 12.854 6.85423L14.854 4.85423C15.049 4.65923 15.049 4.34223 14.854 4.14723L12.854 2.14723C12.659 1.95223 12.342 1.95223 12.147 2.14723C11.952 2.34223 11.952 2.65923 12.147 2.85423L13.293 4.00023H8.5C7.673 4.00023 7 4.67323 7 5.50023V8.00023H1.5C1.224 8.00023 1 8.22423 1 8.50023C1 8.77623 1.224 9.00023 1.5 9.00023H7V11.5002C7 12.3272 7.673 13.0002 8.5 13.0002H13.293L12.147 14.1462C12.049 14.2442 12.001 14.3722 12.001 14.5002C12.001 14.6282 12.05 14.7562 12.147 14.8542C12.342 15.0492 12.659 15.0492 12.854 14.8542Z"/></svg>